<svg id="ezvGUkSZErn1" xmlns="http://www.w3.org/2000/svg" xmlns:xlink="http://www.w3.org/1999/xlink" viewBox="0 0 300 300" shape-rendering="geometricPrecision" text-rendering="geometricPrecision" project-id="bb1adca1f79c42b7b47812fe5dcc3788" export-id="47d6bce3b58c438ab2a2f5772c5a0ae1" cached="false"><path d="M217.231106,229.692144l-2.948358,1.876228c-33.772096,24.658991-106.944972,22.514731-115.909138-57.526035l-.409465.054683c-3.754877.144418-21.702874-2.036427-28.92316-10.190365v.08c10.689442,109.126756,119.44009,102.30921,151.138478,69.994009" transform="translate(0-.02)" stroke="#000" stroke-width="0.6"/><path d="M70.830938,141.637032c-2.94336,3.6792-14.9828,11.077207-10.915719,14.853782c29.957204,27.817403,165.780216,23.787359,188.783069-1.355294c1.403701-1.534278-9.374167-7.69677-18.884873-12.756273-18.115869,23.677161-149.852966,18.280304-158.982477-.742215Z" transform="translate(.549072 0.000001)" fill="#ff0" stroke="#000"/><path d="M71.132204,141.791911c16.048507,21.398002,149.50307,21.893117,159.132167-.039835q-.397098.799835-.290108.63935C236.393664,28.447061,62.795889,29.965988,71.09486,141.76177l.130271.154044" transform="translate(.000001 0)" fill="#ff0" stroke="#000" stroke-width="0.8"/><path d="M135.385117,58.639172c43.330959,5.349498,66.05742,57.644209,66.05742,96.049579" transform="translate(0 0.000001)" fill="none" stroke="#000"/><path d="M135.418465,58.639172c44.11522,0,79.043019,42.466391,77.438168,100.240999" transform="translate(.000001 0.000001)" fill="none" stroke="#000"/><path d="M201.251414,154.274196c3.879561.90691,7.582093,2.581796,11.640136,4.556324" transform="translate(-.027323-.027323)" fill="none" stroke="#000"/><path d="M212.656699,158.76311c5.7632,0,10.465258-3.319499,13.737145-5.481281" transform="translate(.000001 0.000001)" fill="none" stroke="#000"/><path d="M226.204194,153.67791c3.748109-58.916029-47.923032-98.716685-90.719031-94.972041" transform="translate(.000001 0.000001)" fill="none" stroke="#000"/><path d="M136.607158,174.315828c3.4318,2.05908,9.014412,8.068836,11.594222,10.971116c13.26206,14.91982,21.813811,14.204342,42.105728,12.428799c23.598842-2.064899,78.377531-8.116767,76.855635-30.945173-.219746-3.296192-10.318056-8.048919-18.181172-13.121902-9.263477,12.871358-57.238539,22.719897-112.374413,20.66716Z" transform="translate(.253703 1.141661)" fill="#ff0" stroke="#000"/></svg>
